<svg xmlns="http://www.w3.org/2000/svg" xmlns:xlink="http://www.w3.org/1999/xlink" width="120" zoomAndPan="magnify" viewBox="0 0 90 30.000001" height="40" preserveAspectRatio="xMidYMid meet" version="1.0"><defs><g/><clipPath id="485e700e1b"><path d="M 79 4 L 84 4 L 84 10 L 79 10 Z M 79 4 " clip-rule="nonzero"/></clipPath><clipPath id="0c1eb77c9b"><path d="M 78.480469 5.15625 L 81.679688 2.199219 L 86.113281 6.996094 L 82.914062 9.953125 Z M 78.480469 5.15625 " clip-rule="nonzero"/></clipPath><clipPath id="8dfec1f059"><path d="M 78.480469 5.15625 L 81.679688 2.199219 L 86.113281 6.996094 L 82.914062 9.953125 Z M 78.480469 5.15625 " clip-rule="nonzero"/></clipPath><clipPath id="76b160a9d8"><path d="M 81 2 L 87 2 L 87 7 L 81 7 Z M 81 2 " clip-rule="nonzero"/></clipPath><clipPath id="fe0a097d7b"><path d="M 80.816406 2.996094 L 84.015625 0.0390625 L 88.449219 4.835938 L 85.25 7.792969 Z M 80.816406 2.996094 " clip-rule="nonzero"/></clipPath><clipPath id="ab322367ea"><path d="M 80.816406 2.996094 L 84.015625 0.0390625 L 88.449219 4.835938 L 85.25 7.792969 Z M 80.816406 2.996094 " clip-rule="nonzero"/></clipPath></defs><g clip-path="url(#485e700e1b)"><g clip-path="url(#0c1eb77c9b)"><g clip-path="url(#8dfec1f059)"><path fill="#ff5757" d="M 83.992188 4.621094 L 80.050781 4.445312 C 79.292969 4.410156 79.164062 5.894531 80.0625 5.917969 L 82.515625 5.984375 L 82.328125 8.453125 C 82.273438 9.203125 83.738281 9.28125 83.777344 8.519531 Z M 83.992188 4.621094 " fill-opacity="1" fill-rule="nonzero"/></g></g></g><g clip-path="url(#76b160a9d8)"><g clip-path="url(#fe0a097d7b)"><g clip-path="url(#ab322367ea)"><path fill="#f42e3a" d="M 86.328125 2.460938 L 82.390625 2.285156 C 81.628906 2.25 81.5 3.734375 82.402344 3.757812 L 84.851562 3.824219 L 84.664062 6.292969 C 84.609375 7.042969 86.074219 7.121094 86.117188 6.359375 Z M 86.328125 2.460938 " fill-opacity="1" fill-rule="nonzero"/></g></g></g><g fill="#ff5757" fill-opacity="1"><g transform="translate(4.168942, 19.645166)"><g><path d="M 9.890625 -10.828125 C 10.265625 -10.828125 10.5625 -10.722656 10.78125 -10.515625 C 11 -10.316406 11.109375 -10.050781 11.109375 -9.71875 L 11.109375 -1.109375 C 11.109375 -0.773438 11 -0.503906 10.78125 -0.296875 C 10.5625 -0.0976562 10.265625 0 9.890625 0 C 9.535156 0 9.257812 -0.078125 9.0625 -0.234375 C 8.863281 -0.398438 8.742188 -0.617188 8.703125 -0.890625 C 8.222656 -0.503906 7.679688 -0.222656 7.078125 -0.046875 C 6.484375 0.128906 5.921875 0.21875 5.390625 0.21875 C 4.367188 0.21875 3.484375 -0.015625 2.734375 -0.484375 C 1.992188 -0.953125 1.421875 -1.613281 1.015625 -2.46875 C 0.617188 -3.320312 0.421875 -4.316406 0.421875 -5.453125 C 0.421875 -6.554688 0.640625 -7.523438 1.078125 -8.359375 C 1.523438 -9.203125 2.140625 -9.859375 2.921875 -10.328125 C 3.710938 -10.804688 4.625 -11.046875 5.65625 -11.046875 C 6.113281 -11.046875 6.617188 -10.957031 7.171875 -10.78125 C 7.722656 -10.613281 8.234375 -10.347656 8.703125 -9.984375 C 8.765625 -10.234375 8.894531 -10.4375 9.09375 -10.59375 C 9.289062 -10.75 9.554688 -10.828125 9.890625 -10.828125 Z M 5.640625 -1.9375 C 6.265625 -1.9375 6.867188 -2.070312 7.453125 -2.34375 C 8.035156 -2.625 8.445312 -3.035156 8.6875 -3.578125 L 8.6875 -7.25 C 8.414062 -7.78125 8.007812 -8.1875 7.46875 -8.46875 C 6.925781 -8.75 6.378906 -8.890625 5.828125 -8.890625 C 4.929688 -8.890625 4.210938 -8.5625 3.671875 -7.90625 C 3.128906 -7.257812 2.859375 -6.429688 2.859375 -5.421875 C 2.859375 -4.378906 3.113281 -3.535156 3.625 -2.890625 C 4.132812 -2.253906 4.804688 -1.9375 5.640625 -1.9375 Z M 5.640625 -1.9375 "/></g></g></g><g fill="#ff5757" fill-opacity="1"><g transform="translate(16.472414, 19.645166)"><g><path d="M 5.859375 -2.015625 C 6.179688 -2.203125 6.472656 -2.265625 6.734375 -2.203125 C 6.992188 -2.148438 7.207031 -2.023438 7.375 -1.828125 C 7.539062 -1.640625 7.625 -1.421875 7.625 -1.171875 C 7.625 -0.984375 7.566406 -0.796875 7.453125 -0.609375 C 7.335938 -0.429688 7.160156 -0.28125 6.921875 -0.15625 C 6.609375 0.0195312 6.320312 0.125 6.0625 0.15625 C 5.8125 0.195312 5.515625 0.21875 5.171875 0.21875 C 4.242188 0.21875 3.53125 0.0234375 3.03125 -0.359375 C 2.539062 -0.742188 2.203125 -1.238281 2.015625 -1.84375 C 1.835938 -2.457031 1.75 -3.101562 1.75 -3.78125 L 1.75 -8.8125 L 0.9375 -8.8125 C 0.539062 -8.8125 0.242188 -8.914062 0.046875 -9.125 C -0.140625 -9.34375 -0.234375 -9.570312 -0.234375 -9.8125 C -0.234375 -10.0625 -0.132812 -10.289062 0.0625 -10.5 C 0.257812 -10.71875 0.550781 -10.828125 0.9375 -10.828125 L 1.75 -10.828125 L 1.75 -12.65625 C 1.75 -13.03125 1.867188 -13.304688 2.109375 -13.484375 C 2.347656 -13.671875 2.625 -13.765625 2.9375 -13.765625 C 3.238281 -13.765625 3.515625 -13.671875 3.765625 -13.484375 C 4.023438 -13.304688 4.15625 -13.03125 4.15625 -12.65625 L 4.15625 -10.828125 L 5.8125 -10.828125 C 6.175781 -10.828125 6.457031 -10.71875 6.65625 -10.5 C 6.851562 -10.289062 6.953125 -10.0625 6.953125 -9.8125 C 6.953125 -9.550781 6.851562 -9.316406 6.65625 -9.109375 C 6.457031 -8.910156 6.175781 -8.8125 5.8125 -8.8125 L 4.15625 -8.8125 L 4.15625 -3.78125 C 4.15625 -3.46875 4.175781 -3.164062 4.21875 -2.875 C 4.257812 -2.59375 4.351562 -2.351562 4.5 -2.15625 C 4.644531 -1.96875 4.867188 -1.875 5.171875 -1.875 C 5.285156 -1.875 5.410156 -1.890625 5.546875 -1.921875 C 5.679688 -1.960938 5.785156 -1.992188 5.859375 -2.015625 Z M 5.859375 -2.015625 "/></g></g></g><g fill="#ff5757" fill-opacity="1"><g transform="translate(23.858696, 19.645166)"><g><path d="M 5.859375 -2.015625 C 6.179688 -2.203125 6.472656 -2.265625 6.734375 -2.203125 C 6.992188 -2.148438 7.207031 -2.023438 7.375 -1.828125 C 7.539062 -1.640625 7.625 -1.421875 7.625 -1.171875 C 7.625 -0.984375 7.566406 -0.796875 7.453125 -0.609375 C 7.335938 -0.429688 7.160156 -0.28125 6.921875 -0.15625 C 6.609375 0.0195312 6.320312 0.125 6.0625 0.15625 C 5.8125 0.195312 5.515625 0.21875 5.171875 0.21875 C 4.242188 0.21875 3.53125 0.0234375 3.03125 -0.359375 C 2.539062 -0.742188 2.203125 -1.238281 2.015625 -1.84375 C 1.835938 -2.457031 1.75 -3.101562 1.75 -3.78125 L 1.75 -8.8125 L 0.9375 -8.8125 C 0.539062 -8.8125 0.242188 -8.914062 0.046875 -9.125 C -0.140625 -9.34375 -0.234375 -9.570312 -0.234375 -9.8125 C -0.234375 -10.0625 -0.132812 -10.289062 0.0625 -10.5 C 0.257812 -10.71875 0.550781 -10.828125 0.9375 -10.828125 L 1.75 -10.828125 L 1.75 -12.65625 C 1.75 -13.03125 1.867188 -13.304688 2.109375 -13.484375 C 2.347656 -13.671875 2.625 -13.765625 2.9375 -13.765625 C 3.238281 -13.765625 3.515625 -13.671875 3.765625 -13.484375 C 4.023438 -13.304688 4.15625 -13.03125 4.15625 -12.65625 L 4.15625 -10.828125 L 5.8125 -10.828125 C 6.175781 -10.828125 6.457031 -10.71875 6.65625 -10.5 C 6.851562 -10.289062 6.953125 -10.0625 6.953125 -9.8125 C 6.953125 -9.550781 6.851562 -9.316406 6.65625 -9.109375 C 6.457031 -8.910156 6.175781 -8.8125 5.8125 -8.8125 L 4.15625 -8.8125 L 4.15625 -3.78125 C 4.15625 -3.46875 4.175781 -3.164062 4.21875 -2.875 C 4.257812 -2.59375 4.351562 -2.351562 4.5 -2.15625 C 4.644531 -1.96875 4.867188 -1.875 5.171875 -1.875 C 5.285156 -1.875 5.410156 -1.890625 5.546875 -1.921875 C 5.679688 -1.960938 5.785156 -1.992188 5.859375 -2.015625 Z M 5.859375 -2.015625 "/></g></g></g><g fill="#ff5757" fill-opacity="1"><g transform="translate(31.244977, 19.645166)"><g><path d="M 0.484375 -9.234375 C 0.359375 -9.535156 0.347656 -9.804688 0.453125 -10.046875 C 0.554688 -10.285156 0.722656 -10.472656 0.953125 -10.609375 C 1.179688 -10.753906 1.414062 -10.828125 1.65625 -10.828125 C 1.894531 -10.828125 2.117188 -10.753906 2.328125 -10.609375 C 2.546875 -10.460938 2.691406 -10.296875 2.765625 -10.109375 L 5.53125 -3.78125 L 8.1875 -9.25 C 8.289062 -9.5 8.441406 -9.679688 8.640625 -9.796875 C 8.835938 -9.921875 9.054688 -9.984375 9.296875 -9.984375 C 9.828125 -9.984375 10.203125 -9.75 10.421875 -9.28125 L 13.109375 -3.75 L 15.859375 -10.0625 C 16.078125 -10.570312 16.457031 -10.828125 17 -10.828125 C 17.375 -10.828125 17.691406 -10.675781 17.953125 -10.375 C 18.210938 -10.070312 18.25 -9.695312 18.0625 -9.25 L 14.296875 -0.40625 C 14.140625 0.0078125 13.78125 0.21875 13.21875 0.21875 C 12.976562 0.21875 12.753906 0.171875 12.546875 0.078125 C 12.335938 -0.015625 12.175781 -0.171875 12.0625 -0.390625 L 9.34375 -6.15625 L 6.546875 -0.40625 C 6.347656 0.0078125 5.96875 0.21875 5.40625 0.21875 C 5.164062 0.21875 4.953125 0.171875 4.765625 0.078125 C 4.578125 -0.015625 4.425781 -0.179688 4.3125 -0.421875 Z M 0.484375 -9.234375 "/></g></g></g><g fill="#ff5757" fill-opacity="1"><g transform="translate(49.785406, 19.645166)"><g><path d="M 6.09375 -1.890625 C 6.5 -1.890625 6.898438 -1.945312 7.296875 -2.0625 C 7.691406 -2.175781 8.0625 -2.367188 8.40625 -2.640625 C 8.726562 -2.929688 9.046875 -3.066406 9.359375 -3.046875 C 9.671875 -3.023438 9.929688 -2.910156 10.140625 -2.703125 C 10.347656 -2.503906 10.453125 -2.25 10.453125 -1.9375 C 10.453125 -1.632812 10.300781 -1.34375 10 -1.0625 C 9.5 -0.582031 8.910156 -0.242188 8.234375 -0.046875 C 7.554688 0.140625 6.863281 0.226562 6.15625 0.21875 C 5.039062 0.21875 4.0625 -0.0078125 3.21875 -0.46875 C 2.375 -0.925781 1.710938 -1.554688 1.234375 -2.359375 C 0.765625 -3.171875 0.53125 -4.109375 0.53125 -5.171875 C 0.53125 -6.335938 0.753906 -7.359375 1.203125 -8.234375 C 1.660156 -9.117188 2.304688 -9.804688 3.140625 -10.296875 C 3.972656 -10.796875 4.957031 -11.046875 6.09375 -11.046875 C 7.21875 -11.046875 8.175781 -10.8125 8.96875 -10.34375 C 9.769531 -9.882812 10.378906 -9.238281 10.796875 -8.40625 C 11.210938 -7.582031 11.421875 -6.617188 11.421875 -5.515625 C 11.421875 -5.160156 11.347656 -4.859375 11.203125 -4.609375 C 11.066406 -4.359375 10.695312 -4.234375 10.09375 -4.234375 L 3 -4.234375 C 3.195312 -3.535156 3.570312 -2.96875 4.125 -2.53125 C 4.675781 -2.101562 5.332031 -1.890625 6.09375 -1.890625 Z M 6.109375 -8.9375 C 5.285156 -8.9375 4.597656 -8.675781 4.046875 -8.15625 C 3.492188 -7.644531 3.140625 -6.96875 2.984375 -6.125 L 9.171875 -6.125 C 9.097656 -6.96875 8.820312 -7.644531 8.34375 -8.15625 C 7.863281 -8.675781 7.117188 -8.9375 6.109375 -8.9375 Z M 6.109375 -8.9375 "/></g></g></g><g fill="#ff5757" fill-opacity="1"><g transform="translate(62.152733, 19.645166)"><g><path d="M 9.890625 -10.828125 C 10.265625 -10.828125 10.5625 -10.722656 10.78125 -10.515625 C 11 -10.316406 11.109375 -10.050781 11.109375 -9.71875 L 11.109375 -1.109375 C 11.109375 -0.773438 11 -0.503906 10.78125 -0.296875 C 10.5625 -0.0976562 10.265625 0 9.890625 0 C 9.535156 0 9.257812 -0.078125 9.0625 -0.234375 C 8.863281 -0.398438 8.742188 -0.617188 8.703125 -0.890625 C 8.222656 -0.503906 7.679688 -0.222656 7.078125 -0.046875 C 6.484375 0.128906 5.921875 0.21875 5.390625 0.21875 C 4.367188 0.21875 3.484375 -0.015625 2.734375 -0.484375 C 1.992188 -0.953125 1.421875 -1.613281 1.015625 -2.46875 C 0.617188 -3.320312 0.421875 -4.316406 0.421875 -5.453125 C 0.421875 -6.554688 0.640625 -7.523438 1.078125 -8.359375 C 1.523438 -9.203125 2.140625 -9.859375 2.921875 -10.328125 C 3.710938 -10.804688 4.625 -11.046875 5.65625 -11.046875 C 6.113281 -11.046875 6.617188 -10.957031 7.171875 -10.78125 C 7.722656 -10.613281 8.234375 -10.347656 8.703125 -9.984375 C 8.765625 -10.234375 8.894531 -10.4375 9.09375 -10.59375 C 9.289062 -10.75 9.554688 -10.828125 9.890625 -10.828125 Z M 5.640625 -1.9375 C 6.265625 -1.9375 6.867188 -2.070312 7.453125 -2.34375 C 8.035156 -2.625 8.445312 -3.035156 8.6875 -3.578125 L 8.6875 -7.25 C 8.414062 -7.78125 8.007812 -8.1875 7.46875 -8.46875 C 6.925781 -8.75 6.378906 -8.890625 5.828125 -8.890625 C 4.929688 -8.890625 4.210938 -8.5625 3.671875 -7.90625 C 3.128906 -7.257812 2.859375 -6.429688 2.859375 -5.421875 C 2.859375 -4.378906 3.113281 -3.535156 3.625 -2.890625 C 4.132812 -2.253906 4.804688 -1.9375 5.640625 -1.9375 Z M 5.640625 -1.9375 "/></g></g></g><g fill="#ff5757" fill-opacity="1"><g transform="translate(74.456202, 19.645166)"><g><path d="M 5.75 -10.828125 C 6.132812 -10.828125 6.4375 -10.742188 6.65625 -10.578125 C 6.882812 -10.421875 7 -10.160156 7 -9.796875 C 7 -9.453125 6.882812 -9.179688 6.65625 -8.984375 C 6.4375 -8.785156 6.132812 -8.6875 5.75 -8.6875 C 4.851562 -8.6875 4.222656 -8.363281 3.859375 -7.71875 C 3.492188 -7.082031 3.3125 -6.21875 3.3125 -5.125 L 3.3125 -1.078125 C 3.3125 -0.765625 3.195312 -0.503906 2.96875 -0.296875 C 2.75 -0.0976562 2.476562 0 2.15625 0 C 1.78125 0 1.476562 -0.0976562 1.25 -0.296875 C 1.03125 -0.503906 0.921875 -0.765625 0.921875 -1.078125 L 0.921875 -9.75 C 0.921875 -10.082031 1.050781 -10.34375 1.3125 -10.53125 C 1.570312 -10.726562 1.851562 -10.828125 2.15625 -10.828125 C 2.445312 -10.828125 2.710938 -10.734375 2.953125 -10.546875 C 3.191406 -10.367188 3.3125 -10.101562 3.3125 -9.75 L 3.3125 -9.625 C 3.625 -10.03125 3.984375 -10.332031 4.390625 -10.53125 C 4.804688 -10.726562 5.257812 -10.828125 5.75 -10.828125 Z M 5.75 -10.828125 "/></g></g></g></svg>